<?xml version="1.0" encoding="UTF-8" standalone="no"?> <svg xmlns="http://www.w3.org/2000/svg" viewBox="0 0 32 32"><defs><style>.cls-1{fill:#1a1a1a;}</style></defs><title>Cash, money, wallet</title><g id="_08" data-name="08"><path class="cls-1" d="M28,27H4a2,2,0,0,1-2-2V7A2,2,0,0,1,4,5H28a2,2,0,0,1,2,2V25A2,2,0,0,1,28,27ZM4,7V25H28V7Z"/><path class="cls-1" d="M29,21H21a5,5,0,0,1,0-10h8a1,1,0,0,1,1,1v8A1,1,0,0,1,29,21Zm-8-8a3,3,0,0,0,0,6h7V13Z"/><path class="cls-1" d="M22,17H21a1,1,0,0,1,0-2h1a1,1,0,0,1,0,2Z"/></g></svg>